<?xml version="1.0" encoding="UTF-8"?>
<svg id="Layer_1" data-name="Layer 1" xmlns="http://www.w3.org/2000/svg" viewBox="0 0 1065 432">
  <defs>
    <style>
      .cls-1 {
        fill: #58595b;
      }

      .cls-1, .cls-2, .cls-3, .cls-4 {
        stroke-width: 0px;
      }

      .cls-2 {
        fill: #2192d0;
      }

      .cls-3 {
        fill: #0075ae;
      }

      .cls-4 {
        fill: #005d8a;
      }
    </style>
  </defs>
  <g>
    <path class="cls-2" d="M541.93,110.91l-47.16,116.76h-19.62l-47.16-116.76h17.44c1.88,0,3.42.46,4.6,1.37,1.18.92,2.07,2.1,2.67,3.55l27.54,71.22c.91,2.32,1.79,4.86,2.62,7.63.83,2.77,1.63,5.67,2.38,8.68.65-3.01,1.35-5.91,2.1-8.68.75-2.77,1.59-5.32,2.5-7.63l27.37-71.22c.43-1.24,1.28-2.37,2.54-3.39,1.26-1.02,2.81-1.53,4.64-1.53h17.52Z"/>
    <path class="cls-2" d="M575.85,128.19v32.38h40.86v16.72h-40.86v33.03h51.84v17.36h-73.64v-116.76h73.64v17.28h-51.84Z"/>
    <path class="cls-2" d="M715.3,209.75v17.93h-68.39v-116.76h21.72v98.84h46.67Z"/>
    <path class="cls-2" d="M799.2,209.75v17.93h-68.39v-116.76h21.72v98.84h46.67Z"/>
    <path class="cls-2" d="M858.47,210.15c4.2,0,7.95-.7,11.26-2.1,3.31-1.4,6.1-3.36,8.36-5.89,2.26-2.53,4-5.6,5.21-9.21,1.21-3.61,1.82-7.64,1.82-12.11v-69.93h21.72v69.93c0,6.94-1.12,13.36-3.35,19.26-2.23,5.89-5.44,10.98-9.61,15.26-4.17,4.28-9.25,7.62-15.22,10.01-5.98,2.39-12.7,3.59-20.19,3.59s-14.29-1.2-20.27-3.59c-5.98-2.39-11.05-5.73-15.22-10.01-4.17-4.28-7.38-9.37-9.61-15.26-2.23-5.89-3.35-12.31-3.35-19.26v-69.93h21.72v69.85c0,4.47.61,8.51,1.82,12.11,1.21,3.61,2.96,6.69,5.25,9.25,2.29,2.56,5.09,4.54,8.4,5.94,3.31,1.4,7.07,2.1,11.26,2.1Z"/>
    <path class="cls-2" d="M1058,110.91v116.76h-19.14v-75.42c0-3.01.16-6.27.48-9.77l-35.29,66.3c-1.67,3.18-4.23,4.76-7.67,4.76h-3.07c-3.45,0-6-1.59-7.67-4.76l-35.69-66.54c.16,1.78.29,3.53.4,5.25.11,1.72.16,3.31.16,4.76v75.42h-19.14v-116.76h16.39c.97,0,1.8.03,2.5.08.7.05,1.33.19,1.9.4.56.22,1.08.57,1.53,1.05.46.48.9,1.13,1.33,1.94l34.96,64.84c.92,1.72,1.76,3.5,2.54,5.33.78,1.83,1.55,3.71,2.3,5.65.75-1.99,1.53-3.92,2.34-5.77.81-1.86,1.67-3.65,2.58-5.37l34.48-64.68c.43-.81.89-1.45,1.37-1.94.48-.49,1.01-.83,1.58-1.05.57-.21,1.2-.35,1.9-.4.7-.05,1.53-.08,2.5-.08h16.39Z"/>
  </g>
  <g>
    <path class="cls-1" d="M624.21,266.93v66.12h-7.84v-48.59c0-.65.02-1.34.07-2.08.05-.74.1-1.49.16-2.26l-22.7,41.34c-.71,1.38-1.78,2.08-3.23,2.08h-1.29c-1.45,0-2.52-.69-3.23-2.08l-23.16-41.53c.18,1.63.28,3.14.28,4.52v48.59h-7.84v-66.12h6.6c.8,0,1.41.08,1.85.23.43.15.85.59,1.25,1.29l22.84,40.7c.37.74.73,1.51,1.08,2.31s.69,1.61.99,2.45c.31-.83.63-1.65.97-2.47.34-.82.71-1.59,1.11-2.33l22.43-40.65c.37-.71.78-1.14,1.22-1.29.45-.15,1.07-.23,1.87-.23h6.6Z"/>
    <path class="cls-1" d="M702.19,300.01c0,4.95-.78,9.5-2.35,13.63-1.57,4.14-3.78,7.7-6.64,10.68-2.86,2.98-6.3,5.3-10.31,6.94-4.02,1.65-8.45,2.47-13.31,2.47s-9.29-.82-13.29-2.47c-4-1.65-7.43-3.96-10.29-6.94s-5.08-6.54-6.64-10.68c-1.57-4.14-2.35-8.68-2.35-13.63s.78-9.5,2.35-13.64c1.57-4.14,3.78-7.71,6.64-10.71,2.86-3,6.29-5.33,10.29-6.99,4-1.66,8.43-2.49,13.29-2.49s9.3.83,13.31,2.49c4.01,1.66,7.45,3.99,10.31,6.99,2.86,3,5.08,6.57,6.64,10.71,1.57,4.14,2.35,8.68,2.35,13.64ZM693.01,300.01c0-4.06-.55-7.71-1.66-10.94-1.11-3.23-2.68-5.96-4.71-8.19-2.03-2.23-4.49-3.94-7.38-5.14-2.89-1.2-6.12-1.8-9.69-1.8s-6.75.6-9.64,1.8c-2.89,1.2-5.36,2.91-7.41,5.14-2.05,2.23-3.62,4.96-4.73,8.19-1.11,3.23-1.66,6.87-1.66,10.94s.55,7.7,1.66,10.91c1.11,3.21,2.68,5.94,4.73,8.17,2.05,2.23,4.51,3.94,7.41,5.12,2.89,1.18,6.11,1.78,9.64,1.78s6.8-.59,9.69-1.78c2.89-1.18,5.35-2.89,7.38-5.12,2.03-2.23,3.6-4.95,4.71-8.17,1.11-3.21,1.66-6.85,1.66-10.91Z"/>
    <path class="cls-1" d="M763.84,333.05h-7.94c-1.63,0-2.83-.63-3.6-1.89l-17.17-23.63c-.52-.74-1.08-1.27-1.68-1.59-.6-.32-1.53-.48-2.79-.48h-6.78v27.59h-8.9v-66.12h18.69c4.18,0,7.8.42,10.84,1.27,3.04.85,5.56,2.07,7.54,3.67,1.98,1.6,3.45,3.53,4.41,5.79.95,2.26,1.43,4.79,1.43,7.59,0,2.34-.37,4.52-1.11,6.55-.74,2.03-1.81,3.85-3.21,5.47-1.4,1.61-3.11,2.99-5.12,4.13-2.01,1.14-4.3,2-6.85,2.58,1.14.65,2.12,1.58,2.95,2.81l19.29,26.26ZM733.29,298.95c2.58,0,4.87-.31,6.85-.95,1.98-.63,3.64-1.52,4.98-2.68,1.34-1.15,2.35-2.53,3.02-4.13.68-1.6,1.01-3.37,1.01-5.31,0-3.94-1.29-6.91-3.88-8.91-2.58-2-6.46-3-11.63-3h-9.78v24.96h9.41Z"/>
    <path class="cls-1" d="M815.33,274.45h-21.41v58.6h-8.91v-58.6h-21.46v-7.52h51.77v7.52Z"/>
    <path class="cls-1" d="M875.87,301.26v25.38c-3.32,2.4-6.87,4.19-10.64,5.38s-7.9,1.78-12.39,1.78c-5.32,0-10.12-.82-14.4-2.47-4.28-1.65-7.93-3.95-10.96-6.92-3.03-2.97-5.36-6.53-6.99-10.68-1.63-4.15-2.45-8.72-2.45-13.7s.79-9.64,2.38-13.8c1.58-4.15,3.84-7.71,6.76-10.68,2.92-2.97,6.48-5.27,10.66-6.9,4.18-1.63,8.86-2.45,14.03-2.45,2.61,0,5.05.19,7.29.58,2.24.38,4.32.94,6.23,1.66,1.91.72,3.68,1.6,5.31,2.63,1.63,1.03,3.15,2.19,4.57,3.48l-2.54,4.06c-.4.61-.92,1.01-1.55,1.18-.63.17-1.33.02-2.1-.44-.74-.43-1.58-.95-2.54-1.57-.95-.61-2.12-1.21-3.48-1.78-1.37-.57-2.98-1.05-4.84-1.45-1.86-.4-4.07-.6-6.62-.6-3.72,0-7.09.61-10.11,1.82-3.01,1.22-5.58,2.95-7.71,5.21-2.12,2.26-3.75,5-4.89,8.21-1.14,3.21-1.71,6.82-1.71,10.82s.59,7.87,1.78,11.14c1.18,3.28,2.88,6.06,5.08,8.35,2.2,2.29,4.87,4.04,8.01,5.24,3.14,1.2,6.66,1.8,10.57,1.8,3.08,0,5.81-.35,8.19-1.04,2.38-.69,4.71-1.65,6.99-2.88v-14.53h-10.29c-.58,0-1.05-.17-1.41-.51-.35-.34-.53-.75-.53-1.25v-5.08h20.3Z"/>
    <path class="cls-1" d="M942.78,333.05h-6.92c-.8,0-1.45-.2-1.94-.6s-.86-.91-1.11-1.52l-6.18-15.97h-29.67l-6.18,15.97c-.18.55-.54,1.05-1.06,1.48s-1.17.65-1.94.65h-6.92l26.44-66.12h9.04l26.44,66.12ZM924.14,308.5l-10.38-26.9c-.31-.8-.63-1.73-.97-2.79-.34-1.06-.66-2.19-.97-3.39-.65,2.49-1.31,4.57-1.98,6.23l-10.38,26.85h24.69Z"/>
    <path class="cls-1" d="M1003.5,301.26v25.38c-3.32,2.4-6.87,4.19-10.64,5.38s-7.9,1.78-12.39,1.78c-5.32,0-10.12-.82-14.4-2.47-4.28-1.65-7.93-3.95-10.96-6.92-3.03-2.97-5.36-6.53-6.99-10.68-1.63-4.15-2.45-8.72-2.45-13.7s.79-9.64,2.38-13.8c1.58-4.15,3.84-7.71,6.76-10.68,2.92-2.97,6.48-5.27,10.66-6.9,4.18-1.63,8.86-2.45,14.03-2.45,2.61,0,5.05.19,7.29.58,2.24.38,4.32.94,6.23,1.66,1.91.72,3.68,1.6,5.31,2.63,1.63,1.03,3.15,2.19,4.57,3.48l-2.54,4.06c-.4.61-.92,1.01-1.55,1.18-.63.17-1.33.02-2.1-.44-.74-.43-1.58-.95-2.54-1.57-.95-.61-2.12-1.21-3.48-1.78-1.37-.57-2.98-1.05-4.84-1.45-1.86-.4-4.07-.6-6.62-.6-3.72,0-7.09.61-10.11,1.82-3.01,1.22-5.58,2.95-7.71,5.21-2.12,2.26-3.75,5-4.89,8.21-1.14,3.21-1.71,6.82-1.71,10.82s.59,7.87,1.78,11.14c1.18,3.28,2.88,6.06,5.08,8.35,2.2,2.29,4.87,4.04,8.01,5.24,3.14,1.2,6.66,1.8,10.57,1.8,3.08,0,5.81-.35,8.19-1.04,2.38-.69,4.71-1.65,6.99-2.88v-14.53h-10.29c-.58,0-1.05-.17-1.41-.51-.35-.34-.53-.75-.53-1.25v-5.08h20.3Z"/>
    <path class="cls-1" d="M1058,325.76l-.05,7.29h-40.74v-66.12h40.74v7.29h-31.79v21.96h25.75v7.01h-25.75v22.56h31.84Z"/>
  </g>
  <g>
    <path class="cls-2" d="M184.42,237.32S118.9,94.39,118.14,92.73c-10.76-23.49-28.81-23.68-34.51-23.68H5l106.56,214.57,72.86-46.3Z"/>
    <path class="cls-3" d="M301.61,69.05c-11.5,0-25.52,0-38.79,26.53l-58.78,129.27,143.23-91.02,30.52-64.77h-76.17Z"/>
    <path class="cls-4" d="M134.22,329.26h0c.6,1.31,1.23,2.52,1.87,3.68.2.36.4.7.6,1.05.48.82.96,1.6,1.45,2.35.21.32.42.65.63.95.64.91,1.28,1.78,1.94,2.59.3.37.61.7.91,1.05.38.44.76.86,1.15,1.27.39.4.77.8,1.16,1.17.27.26.55.5.82.75,1,.9,2.01,1.73,3.02,2.45h0c8.61,6.14,17.3,6.17,20.94,6.17h68.18l97.81-192.27-216.11,137.34,15.62,31.45Z"/>
  </g>
</svg>